<svg height='100px' width='100px'  fill="#000000" xmlns="http://www.w3.org/2000/svg" xmlns:xlink="http://www.w3.org/1999/xlink" version="1.1" x="0px" y="0px" viewBox="0 0 100 100" enable-background="new 0 0 100 100" xml:space="preserve"><title>Skruv</title><style>@media (prefers-color-scheme: dark) { :root { fill: #dbdbdb; } }</style><g><g><path fill="none" d="M67.489,39.819c0.326-0.326,0.504-0.756,0.504-1.215c0-0.46-0.179-0.891-0.504-1.217l-4.424-4.425    c-0.67-0.671-1.76-0.671-2.432,0l-7.329,7.33c-1.463,1.461-3.843,1.461-5.307,0l-7.329-7.33c-0.336-0.336-0.775-0.502-1.216-0.502    c-0.441,0-0.88,0.167-1.216,0.502l-4.424,4.425c-0.67,0.671-0.67,1.761,0,2.432l7.329,7.328c1.462,1.465,1.462,3.846,0,5.307    l-7.329,7.33c-0.67,0.671-0.67,1.761,0,2.432l4.424,4.425c0.673,0.673,1.763,0.671,2.432,0l7.329-7.33    c1.463-1.461,3.844-1.461,5.307,0l7.329,7.33c0.673,0.673,1.763,0.671,2.432,0l4.424-4.425c0.326-0.326,0.504-0.756,0.504-1.217    c0-0.459-0.179-0.889-0.504-1.215l-7.329-7.33c-1.462-1.461-1.462-3.841-0.001-5.307L67.489,39.819z"></path><path fill="none" d="M49.999,9.066C27.428,9.066,9.066,27.429,9.066,50c0,22.571,18.362,40.934,40.933,40.934    c22.571,0,40.935-18.362,40.935-40.934C90.934,27.429,72.571,9.066,49.999,9.066z M61.598,51.016l7.329,7.33    c0.709,0.709,1.1,1.65,1.1,2.652c0,1.004-0.391,1.945-1.1,2.654l-4.424,4.425c-1.463,1.461-3.843,1.461-5.307,0l-7.329-7.33    c-0.671-0.671-1.761-0.671-2.432,0l-7.329,7.33c-0.732,0.731-1.692,1.098-2.653,1.098c-0.961,0-1.922-0.367-2.653-1.098    l-4.424-4.425c-1.463-1.463-1.463-3.844,0-5.307l7.329-7.33c0.67-0.669,0.669-1.761-0.001-2.432l-7.328-7.328    c-1.463-1.463-1.463-3.844,0-5.307l4.424-4.425c1.463-1.465,3.844-1.465,5.307,0l7.329,7.33c0.672,0.671,1.762,0.671,2.432,0    l7.329-7.33c1.463-1.461,3.844-1.461,5.307,0l4.424,4.425c0.709,0.709,1.1,1.65,1.1,2.654c0,1.003-0.391,1.944-1.1,2.652    l-7.329,7.328C60.929,49.255,60.928,50.347,61.598,51.016z"></path><path d="M68.927,41.257c0.709-0.709,1.1-1.65,1.1-2.652c0-1.005-0.391-1.946-1.1-2.654l-4.424-4.425    c-1.463-1.461-3.843-1.461-5.307,0l-7.329,7.33c-0.67,0.671-1.76,0.671-2.432,0l-7.329-7.33c-1.463-1.465-3.843-1.465-5.307,0    l-4.424,4.425c-1.463,1.463-1.463,3.843,0,5.307l7.328,7.328c0.67,0.671,0.671,1.763,0.001,2.432l-7.329,7.33    c-1.463,1.463-1.463,3.843,0,5.307l4.424,4.425c0.731,0.731,1.692,1.098,2.653,1.098c0.961,0,1.922-0.367,2.653-1.098l7.329-7.33    c0.671-0.671,1.761-0.671,2.432,0l7.329,7.33c1.463,1.461,3.844,1.461,5.307,0l4.424-4.425c0.709-0.709,1.1-1.65,1.1-2.654    c0-1.003-0.391-1.944-1.1-2.652l-7.329-7.33c-0.67-0.669-0.669-1.761,0-2.432L68.927,41.257z M60.16,52.454l7.329,7.33    c0.326,0.326,0.504,0.757,0.504,1.215c0,0.46-0.179,0.891-0.504,1.217l-4.424,4.425c-0.669,0.671-1.759,0.673-2.432,0l-7.329-7.33    c-1.463-1.461-3.843-1.461-5.307,0l-7.329,7.33c-0.669,0.671-1.759,0.673-2.432,0l-4.424-4.425c-0.67-0.671-0.67-1.761,0-2.432    l7.329-7.33c1.462-1.461,1.462-3.841,0-5.307l-7.329-7.328c-0.67-0.671-0.67-1.761,0-2.432l4.424-4.425    c0.336-0.336,0.775-0.502,1.216-0.502c0.441,0,0.88,0.167,1.216,0.502l7.329,7.33c1.463,1.461,3.844,1.461,5.307,0l7.329-7.33    c0.672-0.671,1.762-0.671,2.432,0l4.424,4.425c0.326,0.326,0.504,0.757,0.504,1.217c0,0.459-0.179,0.889-0.504,1.215l-7.33,7.328    C58.698,48.612,58.698,50.993,60.16,52.454z"></path><path d="M49.999,5C25.187,5,5,25.187,5,50c0,24.813,20.187,45,44.999,45C74.813,95,95,74.813,95,50C95,25.187,74.813,5,49.999,5z     M49.999,90.934C27.428,90.934,9.066,72.571,9.066,50c0-22.571,18.362-40.934,40.933-40.934c22.571,0,40.935,18.362,40.935,40.934    C90.934,72.571,72.571,90.934,49.999,90.934z"></path></g></g></svg>
